<svg fill="#FFFFFF" xmlns="http://www.w3.org/2000/svg"  viewBox="0 0 32 32" width="32px" height="32px"><path d="M 15 2 L 15 3 C 11.347656 3 8.128906 5.660156 7.417969 9.136719 C 7.378906 9.300781 7.351563 9.476563 7.328125 9.65625 C 7.324219 9.65625 7.28125 9.769531 7.265625 9.96875 C 7.226563 10.414063 7.109375 11.046875 6.964844 11.6875 C 6.917969 11.886719 6.871094 12.085938 6.824219 12.273438 L 6.820313 12.28125 L 6.820313 12.285156 C 6.816406 12.304688 6.8125 12.3125 6.8125 12.3125 L 6.8125 12.328125 L 6.804688 12.347656 C 6.640625 12.996094 6.464844 13.601563 6.335938 14.046875 C 6.09375 14.648438 5.832031 15.277344 5.570313 15.910156 C 5.019531 17.238281 4.160156 18.722656 3.421875 20.109375 C 2.683594 21.488281 2.003906 22.695313 2 23.988281 C 1.996094 24.335938 2.117188 25.128906 2.90625 25.933594 C 3.480469 26.515625 4.289063 26.90625 5.390625 27.34375 C 6.425781 27.757813 7.710938 28.117188 9.054688 28.367188 C 9.25 28.597656 9.347656 28.925781 9.589844 29.066406 C 10.089844 29.355469 10.664063 29.527344 11.3125 29.65625 C 12.605469 29.921875 14.226563 30 16 30 C 17.773438 30 19.390625 29.925781 20.6875 29.667969 C 21.339844 29.535156 21.910156 29.367188 22.414063 29.074219 C 22.660156 28.933594 22.753906 28.601563 22.949219 28.363281 C 24.292969 28.117188 25.574219 27.757813 26.609375 27.34375 C 27.710938 26.90625 28.519531 26.515625 29.09375 25.933594 C 29.882813 25.128906 30.003906 24.335938 30 23.988281 C 29.996094 22.695313 29.316406 21.488281 28.578125 20.109375 C 27.839844 18.722656 26.980469 17.234375 26.429688 15.910156 C 26.164063 15.273438 25.902344 14.640625 25.660156 14.042969 C 25.660156 14.03125 25.65625 14.023438 25.65625 14.015625 C 25.648438 14 25.644531 13.984375 25.640625 13.96875 L 25.636719 13.953125 C 25.636719 13.949219 25.632813 13.945313 25.632813 13.941406 C 25.613281 13.875 25.589844 13.792969 25.566406 13.707031 L 25.5625 13.703125 C 25.554688 13.664063 25.546875 13.636719 25.542969 13.628906 L 25.542969 13.621094 C 25.519531 13.542969 25.496094 13.460938 25.46875 13.375 L 25.46875 13.367188 L 25.464844 13.359375 C 25.464844 13.359375 25.457031 13.335938 25.453125 13.3125 L 25.449219 13.296875 C 25.417969 13.195313 25.390625 13.089844 25.359375 12.984375 L 25.359375 12.972656 C 25.355469 12.957031 25.347656 12.941406 25.347656 12.9375 L 25.34375 12.921875 L 25.34375 12.90625 C 25.316406 12.816406 25.292969 12.726563 25.269531 12.636719 L 25.265625 12.632813 L 25.265625 12.628906 C 25.257813 12.59375 25.25 12.566406 25.25 12.558594 L 25.246094 12.542969 L 25.242188 12.53125 C 25.214844 12.433594 25.191406 12.328125 25.160156 12.21875 C 25.160156 12.214844 25.164063 12.214844 25.160156 12.214844 L 25.152344 12.175781 L 25.144531 12.152344 C 25.121094 12.050781 25.097656 11.945313 25.070313 11.832031 L 25.066406 11.824219 C 25.058594 11.78125 25.050781 11.75 25.050781 11.753906 L 25.046875 11.734375 L 25.046875 11.71875 C 24.894531 11.070313 24.773438 10.425781 24.734375 9.96875 L 24.734375 9.960938 C 24.722656 9.773438 24.679688 9.671875 24.675781 9.664063 C 24.675781 9.660156 24.667969 9.621094 24.667969 9.625 C 24.644531 9.457031 24.625 9.289063 24.585938 9.140625 C 23.875 5.664063 20.65625 3 17 3 L 17 2 Z M 15 5 L 15 11.890625 C 14.460938 11.613281 13.117188 11 11.457031 11 C 10.699219 11 9.851563 11.144531 9.050781 11.464844 C 9.136719 11.03125 9.210938 10.609375 9.246094 10.214844 C 9.246094 10.210938 9.246094 10.210938 9.246094 10.207031 C 9.246094 10.210938 9.25 10.195313 9.25 10.191406 C 9.25 10.171875 9.257813 10.152344 9.257813 10.128906 C 9.257813 10.15625 9.253906 10.175781 9.25 10.191406 C 9.25 10.1875 9.253906 10.195313 9.265625 10.15625 L 9.285156 10.078125 L 9.292969 9.992188 C 9.308594 9.828125 9.335938 9.699219 9.359375 9.605469 L 9.375 9.550781 C 9.875 7.0625 12.339844 5 15 5 Z M 17 5 C 19.660156 5 22.125 7.058594 22.628906 9.546875 L 22.636719 9.578125 L 22.640625 9.601563 C 22.667969 9.699219 22.691406 9.832031 22.707031 9.992188 L 22.71875 10.074219 L 22.738281 10.15625 C 22.757813 10.21875 22.757813 10.234375 22.753906 10.21875 C 22.753906 10.207031 22.746094 10.167969 22.742188 10.125 L 22.746094 10.125 L 22.746094 10.128906 C 22.746094 10.15625 22.753906 10.191406 22.753906 10.21875 C 22.792969 10.617188 22.867188 11.042969 22.953125 11.480469 C 22.117188 11.148438 21.234375 11 20.457031 11 C 18.816406 11 17.539063 11.601563 17 11.886719 Z M 11.457031 13 C 12.78125 13 14.519531 13.875 14.519531 13.875 L 14.746094 14 L 17.265625 14 L 17.496094 13.867188 C 17.496094 13.867188 19.136719 13 20.457031 13 C 21.710938 13 23.285156 13.558594 23.796875 14.765625 C 24.046875 15.390625 24.316406 16.039063 24.582031 16.679688 C 25.210938 18.1875 26.097656 19.710938 26.8125 21.046875 C 27.527344 22.386719 28 23.617188 28 24 L 28 24.019531 C 27.996094 23.859375 28.070313 24.121094 27.667969 24.53125 C 27.585938 24.617188 26.839844 25.101563 25.871094 25.488281 C 24.898438 25.875 23.65625 26.246094 22.359375 26.464844 L 22.242188 26.484375 L 22 26 L 20 26 L 20 27.75 C 18.96875 27.921875 17.5625 28 16 28 C 14.414063 28 12.992188 27.917969 11.957031 27.734375 L 11.957031 26.042969 L 9.957031 26.042969 L 9.742188 26.484375 L 9.640625 26.464844 C 8.34375 26.246094 7.105469 25.875 6.132813 25.488281 C 5.160156 25.101563 4.417969 24.613281 4.332031 24.53125 C 3.929688 24.121094 4.003906 23.859375 4 24.019531 L 4 24 C 4 23.617188 4.472656 22.386719 5.1875 21.046875 C 5.902344 19.710938 6.789063 18.1875 7.417969 16.679688 L 7.417969 16.675781 C 7.683594 16.035156 7.953125 15.390625 8.203125 14.765625 C 8.726563 13.535156 10.203125 13 11.457031 13 Z M 12 14 C 9.75 14 9 15.734375 9 17 C 9 17.929688 9.328125 19.035156 9.632813 20.101563 C 9.9375 21.167969 10.242188 22.078125 10.242188 22.078125 L 12.140625 21.445313 C 12.140625 21.445313 11.847656 20.570313 11.558594 19.550781 C 11.414063 19.046875 11.277344 18.480469 11.171875 18.003906 C 11.636719 18.011719 12.023438 18 12.023438 18 L 15 18 L 15 15.75 C 15 15.75 13.710938 14 12 14 Z M 15 18 L 15 20 L 12 24 L 20 24 L 17 20 L 17 18 Z M 17 18 L 19.976563 18 C 19.976563 18 20.363281 18.011719 20.828125 18.003906 C 20.722656 18.480469 20.585938 19.046875 20.441406 19.550781 C 20.152344 20.570313 19.859375 21.445313 19.859375 21.445313 L 21.757813 22.078125 C 21.757813 22.078125 22.0625 21.167969 22.367188 20.101563 C 22.671875 19.035156 23 17.929688 23 17 C 23 15.734375 22.28125 14 20 14 C 18.289063 14 17 15.75 17 15.75 Z"/></svg>