<svg fill="#FFFFFF" xmlns="http://www.w3.org/2000/svg"  viewBox="0 0 48 48" width="48px" height="48px"><path d="M 22.603516 1.9492188 C 20.279355 1.887793 17.690859 2.5929687 14.927734 4.0585938 C 9.5657344 6.9495938 6.9064844 11.999266 7.0214844 19.072266 C 7.0384844 20.098266 5.6222656 23.561938 3.0722656 23.960938 C 2.4202656 24.063938 1.8545469 24.476453 1.5605469 25.064453 C 1.2665469 25.653453 1.2749844 26.3535 1.5839844 26.9375 C 3.7659844 31.0465 8.1877187 31.099172 8.3867188 31.076172 C 8.4207188 31.076172 8.4523281 31.071312 8.4863281 31.070312 C 8.6093281 32.012312 8.8062031 33.086187 8.9082031 33.617188 C 8.9532031 33.852187 9.0824375 34.062984 9.2734375 34.208984 C 9.5344375 34.407984 9.8260937 34.571172 10.121094 34.701172 C 11.184094 38.913172 18.567734 45.964844 22.302734 45.964844 L 26.630859 45.964844 C 30.251859 45.964844 37.696828 38.847031 38.798828 34.707031 C 39.122828 34.572031 39.446422 34.397688 39.732422 34.179688 C 39.922422 34.033687 40.053609 33.822891 40.099609 33.587891 C 40.185609 33.140891 40.337031 32.306234 40.457031 31.490234 C 40.830031 31.471234 45.083719 31.165312 46.636719 26.820312 C 46.835719 26.262313 46.782234 25.644906 46.490234 25.128906 C 46.199234 24.612906 45.699187 24.247906 45.117188 24.128906 C 43.418188 23.781906 42.355937 20.843687 41.960938 18.429688 C 41.513937 13.154687 40.555641 2.3034219 30.306641 2.1074219 C 28.712641 2.0884219 27.314422 2.5346719 26.482422 2.8886719 C 25.296297 2.2995469 23.998012 1.9860742 22.603516 1.9492188 z M 23.132812 17.275391 C 26.715813 20.808391 31.615688 22.236281 33.929688 22.738281 C 33.963687 24.792281 34.231266 27.699 35.947266 29.625 L 35.947266 33.757812 C 35.948266 35.994812 28.893906 42.964844 26.628906 42.964844 L 22.300781 42.964844 C 19.636781 42.964844 12.980469 35.934812 12.980469 33.757812 L 12.980469 29.097656 C 14.105469 27.826656 14.798891 25.986172 14.962891 23.701172 C 16.527891 23.064172 19.420063 21.513266 21.289062 18.322266 C 21.729063 20.466266 22.868359 23.3995 25.818359 23.9375 C 25.879359 23.9485 25.939047 23.953125 25.998047 23.953125 C 26.472047 23.953125 26.892469 23.615813 26.980469 23.132812 C 27.079469 22.589813 26.719781 22.06775 26.175781 21.96875 C 24.087781 21.58875 23.374813 18.919391 23.132812 17.275391 z M 29.503906 24.996094 C 28.708906 24.996094 28.013672 25.693234 28.013672 26.490234 C 28.013672 27.287234 28.708906 27.984375 29.503906 27.984375 C 30.298906 27.984375 30.994141 27.287234 30.994141 26.490234 C 30.994141 25.693234 30.298906 24.996094 29.503906 24.996094 z M 18.494141 25.013672 C 17.693141 25.013672 16.992187 25.706047 16.992188 26.498047 C 16.992188 27.290047 17.694141 27.982422 18.494141 27.982422 C 19.295141 27.982422 19.994141 27.290047 19.994141 26.498047 C 19.995141 25.706047 19.295141 25.013672 18.494141 25.013672 z M 20.980469 36.021484 C 20.441469 36.021484 20.003906 36.459047 20.003906 36.998047 L 20.003906 37.021484 C 20.003906 37.560484 20.441469 37.998047 20.980469 37.998047 L 28.015625 37.998047 C 28.554625 37.998047 28.990234 37.560484 28.990234 37.021484 C 28.989234 36.469484 28.543234 36.021484 27.990234 36.021484 L 20.980469 36.021484 z"/></svg>