<svg fill="#FFFFFF" xmlns="http://www.w3.org/2000/svg"  viewBox="0 0 48 48" width="48px" height="48px"><path d="M 22.613281 1.9628906 C 21.700124 1.9381011 20.81285 2.031557 19.990234 2.1914062 C 17.796594 2.6176714 15.969813 3.5062293 14.935547 4.0546875 L 14.931641 4.0566406 L 14.927734 4.0585938 C 9.384983 7.0466112 6.9136008 12.559488 7.0195312 19.074219 C 7.0236912 19.328284 6.6842258 20.737712 5.9570312 21.833984 C 5.2298368 22.930257 4.2339299 23.778908 3.0722656 23.960938 C 2.419526 24.06277 1.8575395 24.477808 1.5625 25.068359 C 1.267944 25.658217 1.2744179 26.35957 1.5839844 26.941406 C 3.7700112 31.057712 8.3839233 31.076145 8.390625 31.076172 C 8.426602 31.07615 8.4603226 31.070899 8.4960938 31.070312 C 8.6183394 32.017434 8.8038025 33.08489 8.90625 33.619141 C 8.95125 33.854141 9.0824375 34.064938 9.2734375 34.210938 C 9.5191894 34.398676 9.7927277 34.550966 10.070312 34.677734 C 10.270255 35.677386 10.788803 36.591984 11.421875 37.5625 C 12.248615 38.829914 13.345943 40.133078 14.554688 41.339844 C 15.763431 42.54661 17.078833 43.650691 18.373047 44.488281 C 19.667261 45.325872 20.896241 45.964844 22.300781 45.964844 L 26.628906 45.964844 C 28.026137 45.964844 29.194871 45.309911 30.466797 44.466797 C 31.738723 43.623682 33.048582 42.513292 34.261719 41.304688 C 35.474855 40.096083 36.585121 38.794176 37.429688 37.539062 C 38.081373 36.570591 38.618036 35.674337 38.837891 34.681641 C 39.148136 34.548671 39.456287 34.389144 39.730469 34.179688 C 39.921469 34.033688 40.052656 33.824844 40.097656 33.589844 C 40.183914 33.140023 40.325233 32.310326 40.445312 31.490234 C 40.505474 31.486226 45.080117 31.170139 46.634766 26.820312 L 46.636719 26.820312 L 46.636719 26.818359 C 46.834144 26.263333 46.779833 25.646785 46.494141 25.134766 L 46.492188 25.128906 L 46.488281 25.123047 C 46.198162 24.613479 45.699476 24.249864 45.123047 24.130859 L 45.121094 24.128906 L 45.119141 24.128906 C 44.187439 23.938878 43.361988 22.875789 42.794922 21.490234 C 42.229599 20.108938 42.013921 18.74669 41.953125 18.378906 C 41.702677 15.427265 41.364352 11.624453 39.832031 8.328125 C 38.282547 4.9948749 35.194234 2.2006305 30.306641 2.1074219 C 28.3306 2.069783 26.996125 2.6548062 26.322266 2.9902344 C 25.398803 2.5557327 24.466244 2.1389967 23.533203 2.0292969 C 23.224289 1.9929771 22.917667 1.9711538 22.613281 1.9628906 z M 22.509766 4.9550781 C 22.725623 4.9599111 22.940078 4.9736479 23.154297 4.9980469 C 24.011171 5.0956429 24.851218 5.3594747 25.642578 5.8515625 L 26.40625 6.3261719 L 27.185547 5.875 C 27.185547 5.875 28.646025 5.07687 30.25 5.1074219 C 34.119406 5.1812129 35.878063 6.9407501 37.111328 9.59375 C 38.344594 12.24675 38.727838 15.80528 38.976562 18.740234 L 38.982422 18.800781 L 38.992188 18.859375 C 39.026157 19.064662 39.284394 20.835508 40.017578 22.626953 C 40.618263 24.094652 41.640102 25.750101 43.332031 26.595703 C 42.214103 28.37991 40.397513 28.488468 40.345703 28.488281 C 39.381541 28.482381 38.838881 28.242341 38.412109 27.875 C 37.98014 27.503186 37.640666 26.93233 37.400391 26.197266 C 36.91984 24.727137 36.925781 22.753256 36.925781 21.488281 L 36.925781 20.175781 L 35.623047 20.001953 C 35.623047 20.001953 27.090343 18.688653 23.568359 13.082031 C 23.123799 12.372229 22.281587 12.004565 21.460938 12.158203 C 20.640069 12.311882 19.992292 12.957228 19.832031 13.773438 L 19.830078 13.775391 L 19.830078 13.777344 C 18.660352 19.798715 13.121094 21.173828 13.121094 21.173828 L 12.001953 21.466797 L 12.001953 22.625 C 12.001953 24.283919 11.656995 25.759584 11.068359 26.679688 C 10.479724 27.599791 9.7972592 28.076172 8.3867188 28.076172 L 8.3828125 28.076172 L 8.3789062 28.076172 C 8.3789062 28.076172 6.3468865 28.012332 4.8945312 26.337891 C 6.4073434 25.695804 7.6656037 24.685294 8.4570312 23.492188 C 9.4878369 21.938209 10.042374 20.421325 10.019531 19.025391 C 9.9255352 13.244636 11.786309 9.1656738 16.341797 6.7050781 L 16.345703 6.703125 C 17.259834 6.218538 18.841551 5.4691779 20.5625 5.1347656 C 21.208479 5.00924 21.862193 4.9405791 22.509766 4.9550781 z M 23.126953 17.177734 C 26.834273 20.934775 31.75336 22.312094 33.949219 22.744141 C 33.959399 23.986357 34.021169 25.514649 34.548828 27.128906 C 34.841256 28.023518 35.298698 28.916218 35.992188 29.675781 L 35.947266 33.740234 C 35.945866 33.868198 35.636418 34.829473 34.939453 35.865234 C 34.242488 36.900996 33.24002 38.088292 32.144531 39.179688 C 31.049043 40.271082 29.854449 41.273536 28.808594 41.966797 C 27.762738 42.660057 26.800675 42.964844 26.628906 42.964844 L 22.300781 42.964844 C 22.028322 42.964844 21.058271 42.654332 20.001953 41.970703 C 18.945636 41.287075 17.756709 40.297906 16.673828 39.216797 C 15.590947 38.135688 14.609088 36.956383 13.935547 35.923828 C 13.262006 34.891273 12.977952 33.94609 12.980469 33.779297 L 13.052734 29.005859 C 13.250189 28.781033 13.435846 28.546749 13.595703 28.296875 C 14.450965 26.960004 14.773027 25.355319 14.888672 23.703125 C 16.394605 23.096344 19.356151 21.512975 21.265625 18.203125 C 21.346062 18.612885 21.450751 19.054273 21.589844 19.503906 C 21.870093 20.409845 22.286018 21.368537 22.957031 22.195312 C 23.628045 23.022089 24.591697 23.712288 25.818359 23.935547 A 1.0004658 1.0004658 0 1 0 26.175781 21.966797 C 25.457444 21.836056 24.951002 21.479208 24.509766 20.935547 C 24.068529 20.391886 23.73025 19.65642 23.5 18.912109 C 23.305242 18.282532 23.197948 17.685287 23.126953 17.177734 z M 29.503906 24.996094 C 28.708906 24.996094 28.013672 25.693234 28.013672 26.490234 C 28.013672 27.287234 28.708906 27.984375 29.503906 27.984375 C 30.298906 27.984375 30.994141 27.287234 30.994141 26.490234 C 30.994141 25.693234 30.298906 24.996094 29.503906 24.996094 z M 18.494141 25.013672 C 17.694141 25.013672 16.994141 25.706047 16.994141 26.498047 C 16.994141 27.290047 17.693141 27.984375 18.494141 27.984375 C 19.294141 27.984375 19.996094 27.290047 19.996094 26.498047 C 19.996094 25.705047 19.294141 25.012672 18.494141 25.013672 z M 44.511719 27.064453 C 44.514719 27.065078 44.516531 27.067759 44.519531 27.068359 L 44.515625 27.068359 C 44.513725 27.067977 44.513519 27.064853 44.511719 27.064453 z M 20.980469 36.021484 C 20.441469 36.021484 20.003906 36.459047 20.003906 36.998047 L 20.003906 37.021484 C 20.003906 37.560484 20.441469 37.998047 20.980469 37.998047 L 28.015625 37.998047 C 28.554625 37.998047 28.990234 37.560484 28.990234 37.021484 C 28.990234 36.469484 28.542234 36.021484 27.990234 36.021484 L 20.980469 36.021484 z"/></svg>