<svg fill="#FFFFFF" xmlns="http://www.w3.org/2000/svg"  viewBox="0 0 32 32" width="32px" height="32px"><path d="M 12.310547 3 C 8.1389656 3 4.6691827 6.0640373 4.09375 10.039062 C 4.03742 10.198009 4 10.366337 4 10.542969 L 4 11.199219 L 4 12 L 4 16 L 4 16.992188 C 3.3532439 17.651646 2.9355469 18.509747 2.9355469 19.462891 C 2.9355469 20.447534 3.3202711 21.351802 3.9648438 21.994141 C 3.9648438 21.994141 3.9648438 21.996094 3.9648438 21.996094 L 5.1210938 23.228516 C 4.8985067 23.850678 4.9423371 24.565501 5.3398438 25.152344 L 6.0390625 26.183594 C 6.0390625 26.183594 6.0410156 26.185547 6.0410156 26.185547 C 6.7161854 27.250817 7.4767026 28.003296 8.3789062 28.445312 C 9.2818794 28.887658 10.253551 29 11.304688 29 L 12.238281 29 C 13.359847 29 14.348897 28.45782 15 27.654297 L 15 28 L 17 28 L 17 27.775391 C 17.650985 28.513297 18.63906 29 19.761719 29 L 20.693359 29 C 21.744495 29 22.718124 28.887704 23.621094 28.445312 C 24.524064 28.002921 25.283386 27.250299 25.958984 26.183594 L 26.662109 25.148438 C 27.060722 24.56148 27.102983 23.846644 26.878906 23.224609 L 28.035156 21.998047 L 28.037109 21.996094 C 28.683255 21.35462 29.070314 20.448983 29.070312 19.462891 C 29.070312 18.508199 28.650336 17.649431 28 16.990234 L 28 16 L 28 10.542969 C 28 10.367822 27.964197 10.20107 27.908203 10.042969 C 27.33458 6.0659382 23.862476 3 19.689453 3 L 16 3 L 12.310547 3 z M 12.310547 5 L 16 5 L 19.689453 5 C 22.401613 5 24.688917 6.661975 25.587891 9 L 6.4121094 9 C 7.3110824 6.661975 9.5983871 5 12.310547 5 z M 6.0097656 11 L 25.990234 11 C 25.992376 11.066694 26 11.132004 26 11.199219 L 26 12 L 26 17 L 26 17.314453 A 1.0001 1.0001 0 0 0 26.478516 18.167969 C 26.818421 18.375386 27.070313 18.815368 27.070312 19.462891 C 27.070312 19.925822 26.887605 20.319757 26.628906 20.576172 A 1.0001 1.0001 0 0 0 26.605469 20.599609 L 25.923828 21.320312 L 18.976562 16.025391 C 18.177733 15.416466 17.183313 15.005226 16.101562 15 L 16.099609 15 L 16.078125 15 L 16.058594 15 L 16.056641 15 C 14.975591 15.0052 13.980863 15.416167 13.181641 16.025391 L 6.1386719 21.392578 L 5.3984375 20.603516 A 1.0001 1.0001 0 0 0 5.375 20.578125 C 5.1182685 20.322532 4.9355469 19.927661 4.9355469 19.462891 C 4.9355469 18.813927 5.1878084 18.372026 5.5234375 18.166016 A 1.0001 1.0001 0 0 0 6 17.314453 L 6 17 L 6 16 L 6 11.199219 C 6 11.132004 6.0076238 11.066694 6.0097656 11 z M 7.5683594 13 L 8.5039062 15.810547 C 8.7519063 16.557547 9.6581094 16.840187 10.287109 16.367188 L 14.767578 13 L 7.5683594 13 z M 17.167969 13 L 21.646484 16.367188 C 22.276484 16.841188 23.185594 16.556594 23.433594 15.808594 L 24.367188 13 L 17.167969 13 z M 16.066406 17 L 16.078125 17 L 16.091797 17 C 16.666046 17.0028 17.258502 17.230159 17.763672 17.615234 L 19.986328 19.310547 L 18.078125 18.425781 C 17.427225 18.124206 16.718019 17.96875 16 17.96875 C 15.281981 17.96875 14.572775 18.124206 13.921875 18.425781 L 12.416016 19.123047 L 14.394531 17.615234 C 14.899309 17.230458 15.493456 17.002771 16.066406 17 z M 16 19.96875 C 16.429981 19.96875 16.853181 20.06181 17.238281 20.240234 L 24.931641 23.802734 C 25.058917 23.861614 25.070498 23.930208 25.005859 24.025391 L 24.287109 25.087891 A 1.0001 1.0001 0 0 0 24.269531 25.113281 C 23.72213 25.977576 23.252264 26.399532 22.740234 26.650391 C 22.228204 26.901249 21.601224 27 20.693359 27 L 19.761719 27 C 19.46768 27 19.220899 26.905936 19 26.787109 L 19 24 L 17 24 L 17 23 L 15 23 L 15 24 L 13 24 L 13 26.826172 C 12.781604 26.933315 12.526997 27 12.238281 27 L 11.304688 27 C 10.396822 27 9.7698425 26.901249 9.2578125 26.650391 C 8.7457825 26.399532 8.275917 25.977576 7.7285156 25.113281 A 1.0001 1.0001 0 0 0 7.7128906 25.087891 L 6.9960938 24.029297 C 6.9291197 23.930427 6.9424606 23.860843 7.0722656 23.800781 A 1.0001 1.0001 0 0 0 7.0742188 23.800781 L 14.761719 20.240234 C 15.146819 20.06181 15.570019 19.96875 16 19.96875 z M 11 24 A 1 1 0 0 0 11 26 A 1 1 0 0 0 11 24 z M 21 24 A 1 1 0 0 0 21 26 A 1 1 0 0 0 21 24 z"/></svg>