<svg fill="#FFFFFF" xmlns="http://www.w3.org/2000/svg"  viewBox="0 0 24 24" width="24px" height="24px"><path d="M 9 1 C 5.4860031 1 2.5692259 3.617426 2.0800781 7 C 2.0317831 7.1433274 2 7.2930115 2 7.4511719 L 2 8 L 2 9 L 2 12 L 2 12.755859 C 1.4346773 13.333088 1.0546875 14.067463 1.0546875 14.884766 C 1.0546875 15.766911 1.42415 16.575961 2.0253906 17.136719 L 3.0214844 18.134766 C 2.9624331 18.594599 3.0452942 19.077196 3.3046875 19.501953 L 3.875 20.4375 L 3.8613281 20.412109 C 4.4057485 21.365961 5.0256859 22.060956 5.7929688 22.478516 C 6.5602515 22.896075 7.3948115 23 8.2558594 23 L 9 23 C 10.256622 23 11.14058 22.106694 11.583984 21 L 12.416016 21 C 12.85942 22.106694 13.743378 23 15 23 L 15.742188 23 C 16.603234 23 17.437637 22.896069 18.205078 22.478516 C 18.972519 22.060962 19.594678 21.366191 20.138672 20.412109 L 20.695312 19.498047 C 20.945503 19.088645 21.032891 18.624578 20.986328 18.179688 L 22.029297 17.136719 C 22.63054 16.575962 23 15.766911 23 14.884766 C 23 14.067677 22.61972 13.333057 22.054688 12.755859 L 22.054688 12 L 22.054688 7.4511719 C 22.054688 7.2932458 22.023178 7.1432522 21.974609 7 C 21.485461 3.617426 18.568684 1 15.054688 1 L 12.054688 1 L 9 1 z M 9 3 L 12.054688 3 L 15.054688 3 C 17.114865 3 18.868487 4.2314966 19.636719 6 L 4.4179688 6 C 5.1862002 4.2314966 6.9398221 3 9 3 z M 4 8 L 20.054688 8 L 20.054688 13 L 20.054688 13.095703 A 1.0001 1.0001 0 0 0 20.556641 13.962891 C 20.821329 14.11489 21 14.407756 21 14.884766 C 21 15.21062 20.864822 15.486586 20.664062 15.673828 A 1.0001 1.0001 0 0 0 20.640625 15.699219 L 19.804688 16.533203 L 13.779297 13.433594 C 13.227412 13.148942 12.616163 13 11.998047 13 C 11.38058 13 10.772387 13.148452 10.220703 13.431641 A 1.0001 1.0001 0 0 0 10.21875 13.433594 L 4.2304688 16.515625 L 3.4140625 15.699219 A 1.0001 1.0001 0 0 0 3.3886719 15.673828 C 3.1879129 15.486585 3.0546875 15.21062 3.0546875 14.884766 C 3.0546875 14.407756 3.2333589 14.11489 3.4980469 13.962891 A 1.0001 1.0001 0 0 0 4 13.095703 L 4 13 L 4 12 L 4 9 L 4 8 z M 5 10 L 5.7792969 12.341797 C 5.9862969 12.965797 6.7425781 13.200641 7.2675781 12.806641 L 11 10 L 5 10 z M 13 10 L 16.732422 12.806641 C 17.257422 13.200641 18.013703 12.965797 18.220703 12.341797 L 19 10 L 13 10 z M 11.998047 15 C 12.29593 15 12.589212 15.069589 12.863281 15.210938 A 1.0001 1.0001 0 0 0 12.863281 15.212891 L 18.998047 18.367188 C 18.969967 18.352718 19.009571 18.420298 18.988281 18.455078 A 1.0001 1.0001 0 0 0 18.988281 18.457031 L 18.416016 19.396484 A 1.0001 1.0001 0 0 0 18.400391 19.421875 C 17.969385 20.177793 17.609106 20.524256 17.248047 20.720703 C 16.887027 20.917057 16.444139 21 15.742188 21 L 15 21 C 14.43497 21 14 20.56503 14 20 A 1.0001 1.0001 0 0 0 13 19 L 11 19 A 1.0001 1.0001 0 0 0 10 20 C 10 20.56503 9.5650302 21 9 21 L 8.2558594 21 C 7.5539073 21 7.1109671 20.917143 6.75 20.720703 C 6.3890329 20.524263 6.029236 20.178024 5.5976562 19.421875 A 1.0001 1.0001 0 0 0 5.5820312 19.396484 L 5.0117188 18.460938 A 1.0001 1.0001 0 0 0 5.0117188 18.458984 C 4.9895118 18.422624 5.0301502 18.35171 5.0039062 18.365234 L 11.132812 15.210938 C 11.407129 15.070126 11.701514 15 11.998047 15 z"/></svg>